<?xml version="1.0" encoding="utf-8"?>
<!-- Generator: Adobe Illustrator 24.0.2, SVG Export Plug-In . SVG Version: 6.00 Build 0)  -->
<svg version="1.1" id="Capa_1" xmlns="http://www.w3.org/2000/svg" xmlns:xlink="http://www.w3.org/1999/xlink" x="0px" y="0px"
	 viewBox="0 0 350 164.2" style="enable-background:new 0 0 350 164.2;" xml:space="preserve">
<style type="text/css">
	.st0{fill:#6953A0;}
	.st1{fill:#AE9EF2;}
	.st2{fill:#FFFFFF;stroke:#000000;stroke-miterlimit:10;}
	.st3{fill:#564080;}
</style>
<path class="st0" d="M-225.8-158.8"/>
<g>
	<path class="st1" d="M350.06,0c-10.57,3.2-25.24,8.57-40.56,17.55c-14.66,8.59-28.38,16.63-36.16,29.71
		c-14.4,24.21,4.98,43.16-9.05,51.99c-9.89,6.23-21.29-2.07-48.45,0.67c-19.61,1.97-32.96,8.24-48.01,15.3
		c-46.43,21.79-40.24,38.32-64.61,42.31c-19.99,3.27,58.82,6.6,246.84,6.6C350.06,109.42,350.06,54.71,350.06,0z"/>
	<path class="st0" d="M350,11.05c-31.31,10.7-63.67,26.78-68.5,50.22c-4.25,20.58,15.15,37.82,5.83,43.93
		c-13.1,8.6-54.47-23.49-82.22-13.16c-19.25,7.17-9.17,26.28-33.82,41.16c-10.01,6.04-16.65,5.9-61.22,13.67
		c-41.46,7.22-62.18,10.83-62.07,12.6c0.23,3.63,64.33,6.17,302,3.77C350,112.52,350,61.78,350,11.05z"/>
	<path class="st2" d="M323.17,23.85"/>
	<path class="st3" d="M350,41.89c-38.53,10.48-54.02,23.42-60.95,33.57c-9.82,14.39-3.99,25.47-17.25,31.1
		c-17.28,7.34-34.96-8.18-61.85-2.62c-21.38,4.42-19.31,16.11-58.29,34.48c0,0-12.53,5.77-27.36,10.12
		C88.92,158.91,0,164.1,0,164.15c0,0.05,64.82,0.08,350,0C350,123.4,350,82.65,350,41.89z"/>
	<path class="st3" d="M183.6,180"/>
</g>
</svg>
